<?xml version="1.0" encoding="UTF-8" standalone="no"?>
<!-- Created with Inkscape (http://www.inkscape.org/) -->

<svg
   width="210mm"
   height="800mm"
   viewBox="0 0 210 800"
   version="1.1"
   id="svg5"
   inkscape:version="1.1.1 (3bf5ae0d25, 2021-09-20)"
   sodipodi:docname="icons.svg"
   inkscape:export-filename="D:\main_documents\1_Assorted_Tech-y_Files\_CodingProjects\professional_jtledon_website\jtledon.github.io\icons\icons.png"
   inkscape:export-xdpi="96"
   inkscape:export-ydpi="96"
   xmlns:inkscape="http://www.inkscape.org/namespaces/inkscape"
   xmlns:sodipodi="http://sodipodi.sourceforge.net/DTD/sodipodi-0.dtd"
   xmlns="http://www.w3.org/2000/svg"
   xmlns:svg="http://www.w3.org/2000/svg">
  <sodipodi:namedview
     id="namedview7"
     pagecolor="#ffffff"
     bordercolor="#666666"
     borderopacity="1.0"
     inkscape:pageshadow="2"
     inkscape:pageopacity="0.0"
     inkscape:pagecheckerboard="0"
     inkscape:document-units="mm"
     showgrid="false"
     inkscape:zoom="0.98242312"
     inkscape:cx="-205.10511"
     inkscape:cy="848.92139"
     inkscape:window-width="3840"
     inkscape:window-height="2050"
     inkscape:window-x="-12"
     inkscape:window-y="-12"
     inkscape:window-maximized="1"
     inkscape:current-layer="layer1"
     showguides="true"
     inkscape:guide-bbox="true"
     inkscape:snap-bbox="true"
     inkscape:bbox-paths="true"
     inkscape:bbox-nodes="true"
     inkscape:snap-bbox-edge-midpoints="true"
     inkscape:snap-bbox-midpoints="true"
     inkscape:object-paths="true"
     inkscape:snap-intersection-paths="true"
     inkscape:snap-smooth-nodes="true"
     inkscape:snap-midpoints="true"
     inkscape:snap-object-midpoints="true"
     inkscape:snap-center="true"
     inkscape:snap-text-baseline="true"
     inkscape:snap-page="true"
     inkscape:lockguides="true"
     inkscape:snap-global="false"
     height="800mm">
    <sodipodi:guide
       position="14.033505,252"
       orientation="0,1"
       id="guide1037"
       inkscape:label=""
       inkscape:locked="true"
       inkscape:color="rgb(0,0,255)" />
    <sodipodi:guide
       position="75,262.12887"
       orientation="-1,0"
       id="guide1388"
       inkscape:label=""
       inkscape:locked="true"
       inkscape:color="rgb(0,0,255)" />
    <sodipodi:guide
       position="74.999998,247"
       orientation="0,1"
       id="guide2659"
       inkscape:label=""
       inkscape:locked="true"
       inkscape:color="rgb(0,0,255)" />
    <sodipodi:guide
       position="24.23969,257"
       orientation="0,1"
       id="guide3367"
       inkscape:label=""
       inkscape:locked="true"
       inkscape:color="rgb(0,0,255)" />
  </sodipodi:namedview>
  <defs
     id="defs2">
    <inkscape:path-effect
       effect="fillet_chamfer"
       id="path-effect3196"
       is_visible="true"
       lpeversion="1"
       satellites_param="F,0,0,1,0,0,0,1 @ F,0,0,1,0,7.9375,0,1 @ F,0,0,1,0,0,0,1"
       unit="px"
       method="auto"
       mode="F"
       radius="30"
       chamfer_steps="1"
       flexible="false"
       use_knot_distance="true"
       apply_no_radius="true"
       apply_with_radius="true"
       only_selected="false"
       hide_knots="false" />
  </defs>
  <g
     inkscape:groupmode="layer"
     id="layer2"
     inkscape:label="School">
    <g
       id="g16727"
       transform="matrix(0.97959184,0,0,1,1.5306122,8.2185364)"
       style="stroke-width:6.06218;stroke-miterlimit:4;stroke-dasharray:none"
       inkscape:export-filename="D:\main_documents\1_Assorted_Tech-y_Files\_CodingProjects\professional_jtledon_website\jtledon.github.io\icons\linkedin_small.png"
       inkscape:export-xdpi="10.16"
       inkscape:export-ydpi="10.16">
      <text
         xml:space="preserve"
         style="font-size:141.111px;line-height:1.25;font-family:Arial;-inkscape-font-specification:'Arial, Normal';fill:none;stroke:#000000;stroke-width:6.06218;stroke-miterlimit:4;stroke-dasharray:none"
         x="12.919432"
         y="208.37311"
         id="text5321"
         inkscape:export-filename="D:\main_documents\1_Assorted_Tech-y_Files\_CodingProjects\professional_jtledon_website\jtledon.github.io\icons\linkedin.png"
         inkscape:export-xdpi="299.91541"
         inkscape:export-ydpi="299.91541"><tspan
           sodipodi:role="line"
           id="tspan5319"
           style="font-style:normal;font-variant:normal;font-weight:normal;font-stretch:normal;font-size:141.111px;font-family:'Arial Rounded MT Bold';-inkscape-font-specification:'Arial Rounded MT Bold, ';fill:none;stroke:#000000;stroke-width:6.06218;stroke-miterlimit:4;stroke-dasharray:none"
           x="12.919432"
           y="208.37311">in</tspan></text>
      <rect
         style="opacity:1;fill:none;stroke:#000000;stroke-width:6.06218;stroke-linecap:butt;stroke-linejoin:round;stroke-miterlimit:4;stroke-dasharray:none;paint-order:markers stroke fill"
         id="rect15961"
         width="147"
         height="127.00001"
         x="1.5"
         y="94.781464"
         rx="7.65625"
         ry="7.5"
         inkscape:export-filename="D:\main_documents\1_Assorted_Tech-y_Files\_CodingProjects\professional_jtledon_website\jtledon.github.io\icons\linkedin.png"
         inkscape:export-xdpi="299.91541"
         inkscape:export-ydpi="299.91541" />
    </g>
  </g>
  <g
     inkscape:label="Email"
     inkscape:groupmode="layer"
     id="layer1">
    <g
       id="g16769"
       style="stroke-width:6.16874;stroke-miterlimit:4;stroke-dasharray:none"
       transform="matrix(0.97931261,0,0,0.96602856,1.5515541,1.5305853)"
       inkscape:export-filename="D:\main_documents\1_Assorted_Tech-y_Files\_CodingProjects\professional_jtledon_website\jtledon.github.io\icons\email_small.png"
       inkscape:export-xdpi="10.16"
       inkscape:export-ydpi="10.16">
      <rect
         style="opacity:1;fill:none;stroke:#000000;stroke-width:6.16874;stroke-linecap:butt;stroke-miterlimit:4;stroke-dasharray:none;paint-order:fill markers stroke"
         id="rect850"
         width="147"
         height="87"
         x="1.5"
         y="1.5"
         rx="2.0422504"
         ry="2.0703335"
         inkscape:export-filename="D:\main_documents\1_Assorted_Tech-y_Files\_CodingProjects\professional_jtledon_website\jtledon.github.io\icons\email.png"
         inkscape:export-xdpi="300"
         inkscape:export-ydpi="300" />
      <path
         style="font-variation-settings:normal;opacity:1;fill:none;fill-opacity:1;stroke:#000000;stroke-width:6.16874;stroke-linecap:butt;stroke-linejoin:round;stroke-miterlimit:4;stroke-dasharray:none;stroke-dashoffset:0;stroke-opacity:1;paint-order:markers stroke fill;stop-color:#000000;stop-opacity:1"
         d="m 1.5,1.5 66.874874,44.128319 a 12.028995,12.028995 0 0 0 13.250252,0 L 148.5,1.5"
         id="path1386"
         sodipodi:nodetypes="ccc"
         inkscape:path-effect="#path-effect3196"
         inkscape:original-d="M 1.5,1.5 75,50.000001 148.5,1.5"
         inkscape:export-filename="D:\main_documents\1_Assorted_Tech-y_Files\_CodingProjects\professional_jtledon_website\jtledon.github.io\icons\email.png"
         inkscape:export-xdpi="300"
         inkscape:export-ydpi="300" />
      <path
         style="font-variation-settings:normal;opacity:1;fill:none;fill-opacity:1;stroke:#000000;stroke-width:6.16874;stroke-linecap:butt;stroke-linejoin:round;stroke-miterlimit:4;stroke-dasharray:none;stroke-dashoffset:0;stroke-opacity:1;stop-color:#000000;stop-opacity:1"
         d="M 1.5,88.499999 59.845361,40.000001"
         id="path3249"
         sodipodi:nodetypes="cc"
         inkscape:export-filename="D:\main_documents\1_Assorted_Tech-y_Files\_CodingProjects\professional_jtledon_website\jtledon.github.io\icons\email.png"
         inkscape:export-xdpi="300"
         inkscape:export-ydpi="300" />
      <path
         style="font-variation-settings:normal;opacity:1;fill:none;fill-opacity:1;stroke:#000000;stroke-width:6.16874;stroke-linecap:butt;stroke-linejoin:round;stroke-miterlimit:4;stroke-dasharray:none;stroke-dashoffset:0;stroke-opacity:1;stop-color:#000000;stop-opacity:1"
         d="m 148.5,88.499999 -58.345363,-48.5"
         id="path3906"
         inkscape:export-filename="D:\main_documents\1_Assorted_Tech-y_Files\_CodingProjects\professional_jtledon_website\jtledon.github.io\icons\email.png"
         inkscape:export-xdpi="300"
         inkscape:export-ydpi="300" />
    </g>
    <g
       id="g1040"
       transform="matrix(0.72832779,0,0,0.72832779,-0.17436862,271.08566)"
       style="stroke-width:0.363275">
      <g
         id="g1038"
         style="stroke-width:0.363275"
         transform="translate(-1.4997062e-8,-38.456554)">
        <path
           style="fill:#010002;stroke-width:0.363275"
           d="m 201.465,20.126 -9.298,-8.754 v 0 C 188.32,8.362 183.871,5.832 179.083,3.96 174.534,2.231 170.175,1.143 165.831,0.65 130.868,-3.558 98.909,12.414 55.569,55.758 -4.351,115.689 0.176,163.989 0.398,166.061 c 0.544,4.542 1.625,8.89 3.343,13.313 1.847,4.742 4.37,9.173 7.387,13.027 v 0 l 8.753,9.309 c 6.592,6.589 17.118,6.786 23.477,0.437 l 31.945,-31.934 c 6.335,-6.356 6.141,-16.889 -0.444,-23.477 L 58.768,130.649 c 0.558,-1.016 1.145,-2.076 1.772,-3.178 5.63,-10.15 13.346,-24.053 27.99,-38.695 14.673,-14.68 28.602,-22.396 38.773,-28.037 1.081,-0.598 2.108,-1.17 3.096,-1.729 l 10.783,10.797 5.304,5.3 c 6.61,6.589 17.128,6.785 23.488,0.437 L 201.908,43.6 c 6.349,-6.349 6.153,-16.878 -0.443,-23.474 z m -6.646,16.388 -31.931,31.938 c -2.448,2.441 -6.635,2.244 -9.323,-0.437 l -21.541,-21.559 -3.357,1.983 c -1.865,1.106 -3.955,2.269 -6.231,3.525 -10.69,5.93 -25.338,14.054 -40.996,29.719 -15.636,15.636 -23.749,30.248 -29.669,40.924 -1.274,2.298 -2.444,4.409 -3.565,6.299 l -2.004,3.35 21.566,21.555 c 2.681,2.688 2.874,6.868 0.429,9.316 l -31.92,31.927 c -2.459,2.444 -6.621,2.248 -9.312,-0.429 l -4.005,-4.012 -1.535,-1.6 c -2.434,-2.53 -5.851,-6.896 -8.349,-13.267 -1.392,-3.618 -2.29,-7.168 -2.72,-10.805 -0.039,-0.455 -3.915,-45.874 52.287,-102.087 47.803,-47.799 75.335,-55.461 102.012,-52.248 3.536,0.404 7.1,1.296 10.819,2.698 6.399,2.509 10.758,5.93 13.281,8.36 l 5.619,5.547 c 2.696,2.689 2.889,6.859 0.445,9.303 z"
           id="path1036"
           sodipodi:nodetypes="cccccccccccccccccccccccccccccccccccccccccccccccc" />
      </g>
    </g>
  </g>
</svg>
