<?xml version="1.0" encoding="UTF-8" standalone="no"?>
<!-- Generator: Adobe Illustrator 18.1.1, SVG Export Plug-In . SVG Version: 6.00 Build 0)  -->

<svg
   version="1.1"
   id="Capa_1"
   x="0px"
   y="0px"
   viewBox="0 0 206.783 206.783"
   style="enable-background:new 0 0 206.783 206.783;"
   xml:space="preserve"
   sodipodi:docname="phone-svgrepo-com.svg"
   inkscape:version="1.1.1 (3bf5ae0d25, 2021-09-20)"
   xmlns:inkscape="http://www.inkscape.org/namespaces/inkscape"
   xmlns:sodipodi="http://sodipodi.sourceforge.net/DTD/sodipodi-0.dtd"
   xmlns="http://www.w3.org/2000/svg"
   xmlns:svg="http://www.w3.org/2000/svg"><defs
   id="defs1075" /><sodipodi:namedview
   id="namedview1073"
   pagecolor="#ffffff"
   bordercolor="#666666"
   borderopacity="1.0"
   inkscape:pageshadow="2"
   inkscape:pageopacity="0.0"
   inkscape:pagecheckerboard="0"
   showgrid="false"
   inkscape:zoom="2.9852754"
   inkscape:cx="-23.950889"
   inkscape:cy="71.685178"
   inkscape:window-width="3840"
   inkscape:window-height="2050"
   inkscape:window-x="-12"
   inkscape:window-y="-12"
   inkscape:window-maximized="1"
   inkscape:current-layer="Capa_1" />
<g
   id="g1040">
	<g
   id="g1038">
		<path
   style="fill:#010002"
   d="m 201.465,20.126 -9.298,-8.754 v 0 C 188.32,8.362 183.871,5.832 179.083,3.96 174.534,2.231 170.175,1.143 165.831,0.65 130.868,-3.558 98.909,12.414 55.569,55.758 -4.351,115.689 0.176,163.989 0.398,166.061 c 0.544,4.542 1.625,8.89 3.343,13.313 1.847,4.742 4.37,9.173 7.387,13.027 v 0 l 8.753,9.309 c 6.592,6.589 17.118,6.786 23.477,0.437 l 31.945,-31.934 c 6.335,-6.356 6.141,-16.889 -0.444,-23.477 L 58.768,130.649 c 0.558,-1.016 1.145,-2.076 1.772,-3.178 5.63,-10.15 13.346,-24.053 27.99,-38.695 14.673,-14.68 28.602,-22.396 38.773,-28.037 1.081,-0.598 2.108,-1.17 3.096,-1.729 l 10.783,10.797 5.304,5.3 c 6.61,6.589 17.128,6.785 23.488,0.437 L 201.908,43.6 c 6.349,-6.349 6.153,-16.878 -0.443,-23.474 z m -6.646,16.388 -31.931,31.938 c -2.448,2.441 -6.635,2.244 -9.323,-0.437 l -21.541,-21.559 -3.357,1.983 c -1.865,1.106 -3.955,2.269 -6.231,3.525 -10.69,5.93 -25.338,14.054 -40.996,29.719 -15.636,15.636 -23.749,30.248 -29.669,40.924 -1.274,2.298 -2.444,4.409 -3.565,6.299 l -2.004,3.35 21.566,21.555 c 2.681,2.688 2.874,6.868 0.429,9.316 l -31.92,31.927 c -2.459,2.444 -6.621,2.248 -9.312,-0.429 l -4.005,-4.012 -1.535,-1.6 c -2.434,-2.53 -5.851,-6.896 -8.349,-13.267 -1.392,-3.618 -2.29,-7.168 -2.72,-10.805 -0.039,-0.455 -3.915,-45.874 52.287,-102.087 47.803,-47.799 75.335,-55.461 102.012,-52.248 3.536,0.404 7.1,1.296 10.819,2.698 6.399,2.509 10.758,5.93 13.281,8.36 l 5.619,5.547 c 2.696,2.689 2.889,6.859 0.445,9.303 z"
   id="path1036"
   sodipodi:nodetypes="cccccccccccccccccccccccccccccccccccccccccccccccc" />
	</g>
</g>
<g
   id="g1042">
</g>
<g
   id="g1044">
</g>
<g
   id="g1046">
</g>
<g
   id="g1048">
</g>
<g
   id="g1050">
</g>
<g
   id="g1052">
</g>
<g
   id="g1054">
</g>
<g
   id="g1056">
</g>
<g
   id="g1058">
</g>
<g
   id="g1060">
</g>
<g
   id="g1062">
</g>
<g
   id="g1064">
</g>
<g
   id="g1066">
</g>
<g
   id="g1068">
</g>
<g
   id="g1070">
</g>
</svg>
